#!OML:ASF X:\für Bonn\!DataBase\2005_08_11_Bastian_Final\c3d\Bastian.ASF
:FULLY-SPECIFIED
:DEGREES
151
root -1.22578 17.0601 -14.0943 145.957 18.8105 -187.834
lowerback 17.5289 -2.44595 3.16298
upperback 14.9456 0.276925 -4.94915
thorax 6.4573 2.04287 -7.03495
lowerneck 2.49298 0.609545 -14.9157
upperneck 2.87314 0.836372 0.424964
head 0.439796 0.415473 2.73728
rclavicle -2.36057e-014 1.64991e-014
rhumerus -55.5042 23.7223 -96.5694
rradius 107.92
rwrist 9.15419
rhand -15.5957 8.8679
rfingers 7.12502
rthumb 10.5902 -20.8453
lclavicle -2.36057e-014 1.64991e-014
lhumerus -15.4603 -25.7828 90.9163
lradius 119.464
lwrist 35.0461
lhand -13.205 -15.6552
lfingers 7.12502
lthumb 12.8956 13.9263
rfemur 27.2648 12.305 21.3752
rtibia 33.7319
rfoot -201.206 -179.576
rtoes 2.7554
lfemur -50.2753 35.6336 -7.79646
ltibia 105.955
lfoot 17.8685 -2.76714
ltoes -24.4351
152
root -1.27016 17.0596 -14.1566 147.067 19.3984 -187.379
lowerback 16.7712 -2.44425 3.43435
upperback 14.5905 0.0784347 -4.6839
thorax 6.40499 1.84424 -6.87179
lowerneck 1.87756 0.740518 -14.6266
upperneck 2.66397 1.08301 0.406655
head 0.459191 0.538893 2.67792
rclavicle -3.84524e-014 -3.0265e-014
rhumerus -56.8974 22.7344 -96.5589
rradius 108.156
rwrist 9.27803
rhand -15.8571 8.90782
rfingers 7.12502
rthumb 10.338 -20.8181
lclavicle -3.84524e-014 -3.0265e-014
lhumerus -16.766 -25.8043 91.7888
lradius 120.095
lwrist 34.7717
lhand -13.139 -15.7768
lfingers 7.12502
lthumb 12.9592 13.8008
rfemur 26.2232 12.5296 21.5863
rtibia 33.9627
rfoot -201.476 -179.388
rtoes 2.75565
lfemur -47.0073 34.6978 -6.50796
ltibia 104.743
lfoot 17.8107 -1.88166
ltoes -22.6598
153
root -1.31488 17.057 -14.2239 148.142 19.9966 -186.931
lowerback 15.9834 -2.44867 3.67861
upperback 14.249 -0.123064 -4.43472
thorax 6.39084 1.65044 -6.71404
lowerneck 1.35978 0.893813 -14.2379
upperneck 2.37578 1.33866 0.346759
head 0.436634 0.671735 2.58569
rclavicle -5.53328e-014 5.72748e-015
rhumerus -58.246 21.8535 -96.5208
rradius 108.416
rwrist 9.40304
rhand -16.1162 9.14148
rfingers 7.12502
rthumb 10.088 -20.5967
lclavicle -5.53328e-014 5.72748e-015
lhumerus -18.0729 -25.7829 92.6198
lradius 120.753
lwrist 34.5931
lhand -12.9923 -15.9393
lfingers 7.12502
lthumb 13.1006 13.6292
rfemur 25.2271 12.724 21.7469
rtibia 34.1788
rfoot -201.78 -179.163
rtoes 2.49409
lfemur -43.7693 33.563 -5.34995
ltibia 103.319
lfoot 17.5908 -0.43626
ltoes -20.6963
154
root -1.35926 17.0604 -14.2924 149.204 20.607 -186.463
lowerback 15.1953 -2.4492 3.86952
upperback 13.9214 -0.317566 -4.15644
thorax 6.3997 1.46098 -6.49855
lowerneck 0.89097 1.06176 -13.8038
upperneck 2.09603 1.60774 0.239822
head 0.409511 0.812227 2.46962
rclavicle 4.68076e-015 -7.57867e-015
rhumerus -59.4854 21.1206 -96.4211
rradius 108.671
rwrist 9.605
rhand -16.416 9.40485
rfingers 7.12502
rthumb 9.79886 -20.3472
lclavicle 4.68076e-015 -7.57867e-015
lhumerus -19.3331 -25.7727 93.5048
lradius 121.364
lwrist 34.4811
lhand -12.8073 -16.1254
lfingers 7.12502
lthumb 13.2789 13.4316
rfemur 24.2856 12.9064 21.9121
rtibia 34.3557
rfoot -202.096 -178.964
rtoes 2.188
lfemur -40.6893 32.2438 -4.29142
ltibia 101.725
lfoot 17.2228 1.47491
ltoes -19.9066
155
root -1.40296 17.068 -14.3603 150.243 21.182 -186.013
lowerback 14.4155 -2.45375 3.94483
upperback 13.6097 -0.516456 -3.87838
thorax 6.42787 1.26801 -6.22106
lowerneck 0.536676 1.24989 -13.2266
upperneck 1.71918 1.88057 0.0534238
head 0.334533 0.95983 2.29971
rclavicle 3.85207e-014 -1.27222e-014
rhumerus -60.5334 20.5293 -96.2822
rradius 108.94
rwrist 9.78137
rhand -16.6693 9.70452
rfingers 7.12502
rthumb 9.55441 -20.0589
lclavicle 3.85207e-014 -1.27222e-014
lhumerus -20.5661 -25.7599 94.3491
lradius 121.989
lwrist 34.3718
lhand -12.5882 -16.3749
lfingers 7.12502
lthumb 13.4901 13.1682
rfemur 23.4034 13.0587 22.0193
rtibia 34.4632
rfoot -202.363 -178.724
rtoes 1.90219
lfemur -37.86 30.7593 -3.3885
ltibia 100.035
lfoot 16.7855 3.74641
ltoes -19.2985
156
root -1.44581 17.0726 -14.4277 151.241 21.694 -185.592
lowerback 13.6824 -2.46554 3.84978
upperback 13.2943 -0.731589 -3.56577
thorax 6.43113 1.05534 -5.81211
lowerneck 0.271029 1.46886 -12.6433
upperneck 1.33612 2.18205 -0.168252
head 0.243933 1.12279 2.11729
rclavicle 3.2874e-014 -1.75924e-014
rhumerus -61.3965 20.1771 -96.0304
rradius 109.178
rwrist 9.81104
rhand -16.8225 10.0568
rfingers 7.12502
rthumb 9.40657 -19.7133
lclavicle 3.2874e-014 -1.75924e-014
lhumerus -21.7137 -25.687 95.2022
lradius 122.518
lwrist 34.2656
lhand -12.2749 -16.6388
lfingers 7.12502
lthumb 13.7921 12.884
rfemur 22.5508 13.0998 22.018
rtibia 34.5379
rfoot -202.654 -178.436
rtoes 1.34122
lfemur -35.1839 29.1441 -2.67395
ltibia 98.2512
lfoot 16.1667 6.1863
ltoes -16.5141
